<svg width="16" height="20" viewBox="0 0 16 20" fill="none" xmlns="http://www.w3.org/2000/svg">
<path d="M8.275 17C8.475 16.9833 8.64583 16.9042 8.7875 16.7625C8.92917 16.6208 9 16.45 9 16.25C9 16.0167 8.925 15.8292 8.775 15.6875C8.625 15.5458 8.43333 15.4833 8.2 15.5C7.51667 15.55 6.79167 15.3625 6.025 14.9375C5.25833 14.5125 4.775 13.7417 4.575 12.625C4.54167 12.4417 4.45417 12.2917 4.3125 12.175C4.17083 12.0583 4.00833 12 3.825 12C3.59167 12 3.4 12.0875 3.25 12.2625C3.1 12.4375 3.05 12.6417 3.1 12.875C3.38333 14.3917 4.05 15.475 5.1 16.125C6.15 16.775 7.20833 17.0667 8.275 17V17M8 20C5.71667 20 3.8125 19.2167 2.2875 17.65C0.7625 16.0833 0 14.1333 0 11.8C0 10.1333 0.6625 8.32083 1.9875 6.3625C3.3125 4.40417 5.31667 2.28333 8 0C10.6833 2.28333 12.6875 4.40417 14.0125 6.3625C15.3375 8.32083 16 10.1333 16 11.8C16 14.1333 15.2375 16.0833 13.7125 17.65C12.1875 19.2167 10.2833 20 8 20V20" fill="#006553"/>
</svg>
